<?xml version="1.0" encoding="UTF-8"?>
<svg xmlns="http://www.w3.org/2000/svg" xmlns:xlink="http://www.w3.org/1999/xlink" width="125px" height="65px" viewBox="0 0 125 65" version="1.1">
<defs>
<clipPath id="clip1">
  <path d="M 0 0 L 125 0 L 125 64.984375 L 0 64.984375 Z M 0 0 "/>
</clipPath>
</defs>
<g id="surface1">
<g clip-path="url(#clip1)" clip-rule="nonzero">
<path style=" stroke:none;fill-rule:nonzero;fill:rgb(5.882353%,3.137255%,25.882354%);fill-opacity:1;" d="M 125 39.980469 L 124.941406 12.792969 L 117.742188 0 L 69.597656 0 L 66.847656 12.8125 L 6.667969 12.8125 L 0 25.003906 L 0.0585938 52.1875 L 7.261719 64.984375 L 55.402344 64.984375 L 58.152344 52.171875 L 118.335938 52.171875 Z M 112.570312 35.527344 L 110.027344 39.710938 L 60.8125 39.652344 L 58.121094 52.039062 L 15.0625 52.101562 L 12.429688 48.246094 L 12.429688 29.460938 L 14.96875 25.277344 L 64.183594 25.335938 L 66.882812 12.945312 L 109.945312 12.886719 L 112.578125 16.738281 Z M 112.570312 35.527344 "/>
</g>
</g>
</svg>
